<svg xmlns="http://www.w3.org/2000/svg" viewBox="0 0 870.14 488.24"><defs><style>.cls-1,.cls-5{fill:#202121;}.cls-2{fill:#f3f3f3;}.cls-3{fill:#fbbd17;}.cls-4{fill:#f7f8f8;}.cls-5{font-size:36px;font-family:Montserrat-Bold, Montserrat;font-weight:700;}</style></defs><g id="Layer_2" data-name="Layer 2"><g id="Layer_1-2" data-name="Layer 1"><path class="cls-1" d="M18.41,301.69Q7,298.36,0,293l8.13-18A55.3,55.3,0,0,0,24,282.84a59.43,59.43,0,0,0,18.33,3q10.2,0,15.08-3t4.88-8.05a7.69,7.69,0,0,0-2.89-6.14A21.8,21.8,0,0,0,52,264.65q-4.51-1.47-12.19-3.25a166.52,166.52,0,0,1-19.37-5.62,31.33,31.33,0,0,1-12.93-9q-5.4-6.21-5.4-16.56A28.84,28.84,0,0,1,7,213.87q4.87-7.32,14.71-11.6t24-4.29a79.46,79.46,0,0,1,19.37,2.37,57,57,0,0,1,16.55,6.8l-7.39,18.18q-14.34-8.13-28.68-8.13-10.05,0-14.86,3.25a9.94,9.94,0,0,0-4.8,8.58q0,5.31,5.54,7.91T48.34,242a171.19,171.19,0,0,1,19.37,5.62,32.19,32.19,0,0,1,12.93,8.87q5.4,6.06,5.4,16.41a28.26,28.26,0,0,1-5,16.19q-5,7.32-14.86,11.6T42.13,305A84.85,84.85,0,0,1,18.41,301.69Z"/><path class="cls-1" d="M183.28,282.75v22h-82v-105h80v20h-55v22h48v18h-48v23Z"/><path class="cls-1" d="M200.28,199.75h25v83h52v22h-77Z"/><path class="cls-1" d="M292.28,199.75h23v83h53v22h-76Z"/><path class="cls-1" d="M855.08,222,628.19,14.69A56,56,0,0,0,586.09.16l-158,12.05-11.8.9-6.49.5a40,40,0,0,0-4.49.6A37.31,37.31,0,0,0,375.5,46.88a36.08,36.08,0,0,0-.21,4.52l0,2,2.42,174.81A56.19,56.19,0,0,0,396,268.8L622.86,476.12a46.3,46.3,0,0,0,65.41-2.95l84.87-92.89L858,287.39A46.28,46.28,0,0,0,855.08,222ZM434.89,71.2a20.66,20.66,0,0,1-35.14-19.49,20.6,20.6,0,0,1,16.78-14.87,20.69,20.69,0,0,1,13,2.28,21,21,0,0,1,4,2.88A20.67,20.67,0,0,1,434.89,71.2Z"/><path class="cls-2" d="M616.06,272.86H581.73a16.82,16.82,0,0,0,6.9,8.84,22.09,22.09,0,0,0,12.08,3.08,28.46,28.46,0,0,0,10.45-1.68c2.81-1.12,5.89-3.84,9.23-6.57l16.1,19.82c-9.21,10.92-18.79,17.23-37,19.52q-17.09,0-30-6.8a49,49,0,0,1-20-18.89,56.25,56.25,0,0,1-.08-54.46A49.15,49.15,0,0,1,568.53,217a58.89,58.89,0,0,1,53.5-.56,46.14,46.14,0,0,1,18.81,18.06c.42.71.81,1.43,1.19,2.16Zm-29.84-30.35q-4,3.54-5.18,10.06h30.37a17.47,17.47,0,0,0-5.17-10,14.29,14.29,0,0,0-10-3.64A14.51,14.51,0,0,0,586.22,242.51Z"/><path class="cls-2" d="M618.31,278.4s14.62-16.58,23.65-33.06c-2.7,14.75-3.32,29.27,0,43.37l-6.9,9.28Z"/><path class="cls-2" d="M666.13,188.63s76.53-62.2,32.55-108-68.93,22-68.93,22-14,60,5,107.62Z"/><path class="cls-3" d="M816.92,279.31H708.67a27.8,27.8,0,0,0,11.39,14.6Q728,299,740,299q10.26,0,17.24-2.76c4.65-1.85,9.73-6.34,15.24-10.85h44.33c-9.81,25.45-23,52-78.8,64.93q-28.2,0-49.57-11.21a80.91,80.91,0,0,1-33-31.2q-11.68-20-11.68-44.86,0-25.2,11.53-45a81.44,81.44,0,0,1,31.63-30.89Q707,176.07,732,176.06a92.23,92.23,0,0,1,43.16,10.14,76.39,76.39,0,0,1,31,29.81q11.53,19.67,11.53,47Q817.77,264.56,816.92,279.31ZM716.07,229.22q-6.55,5.85-8.54,16.6h50.14q-2-10.44-8.55-16.44t-16.52-6Q722.63,223.38,716.07,229.22Z"/><path class="cls-4" d="M530.61,266.28q5,6.59,5,16.19c0,9.07-3.52,16.56-10.57,21.44s-17.32,7.84-30.82,7.84h-53v-104h50c12.62,0,22.3,2.15,29.05,7s10.13,11.25,10.13,19.53a25,25,0,0,1-3.62,13.39,25.35,25.35,0,0,1-10.13,9.28A27.31,27.31,0,0,1,530.61,266.28Zm-67.33-41.53v25h25.05c5.91,0,10.39-1.08,13.45-3.15a10.41,10.41,0,0,0,4.58-9.19c0-4-1.53-7.34-4.58-9.36s-7.54-3.3-13.45-3.3Zm43.45,64.86c3.2-2.07,4.8-5.47,4.8-9.81,0-8.57-6.35-13.05-19.06-13.05H463.28v26h29.19C498.77,292.75,503.53,291.68,506.73,289.61Z"/><text class="cls-5" transform="translate(48.5 359.75)">CREATING BUSINESS</text></g></g></svg>